# xmcd CD database file
#
# Track frame offsets:
#	150
#	19335
#	27656
#	43301
#	59071
#	78173
#	95734
#	108659
#	119354
#	132745
#	149812
#
# Disc length: 2298 seconds
#
# Revision: 0
# Processed by: cddbd v1.5PL3 Copyright (c) Steve Scherf et al.
# Submitted via: CDex 1.51
#
DISCID=b308f80b
DTITLE=Mickey Newbury - I Came To Hear The Music
DYEAR=1973
DGENRE=Country
TTITLE0=I Came to Hear the Music
TTITLE1=Breeze Lullaby
TTITLE2=You Only Live Once (In a While)
TTITLE3=Yesterday's Gone
TTITLE4=If You See Her
TTITLE5=Dizzy Lizzy
TTITLE6=If I Could Be
TTITLE7=Organized Noise
TTITLE8=Love, Look at Us Now
TTITLE9=Baby's Not Home
TTITLE10=1 X 1 Ain't 2
EXTD=YEAR: 1973
EXTT0=
EXTT1=
EXTT2=
EXTT3=
EXTT4=
EXTT5=
EXTT6=
EXTT7=
EXTT8=
EXTT9=
EXTT10=
PLAYORDER=
